<svg width="12" height="10" viewBox="0 0 12 10" fill="none" xmlns="http://www.w3.org/2000/svg">
<path fill-rule="evenodd" clip-rule="evenodd" d="M4.25586 9.34695L3.11523 8.16388H2.33008C2.05566 8.16388 1.83105 7.93072 1.83105 7.64585V6.76387H1.35547V7.79588C1.35547 8.01587 1.18164 8.19632 0.969727 8.19632H0.385742C0.173828 8.19632 0 8.01587 0 7.79588V4.29838C0 4.07839 0.173828 3.89794 0.385742 3.89794H0.969727C1.18164 3.89794 1.35547 4.07839 1.35547 4.29838V5.3304H1.83105V4.38151C1.83105 4.09664 2.05566 3.86347 2.33008 3.86347H3.16406L4.34277 2.56281C4.47949 2.43913 4.66113 2.39554 4.87305 2.40466H9.72949C9.89746 2.42392 10.0254 2.49083 10.1035 2.61654C10.1816 2.74022 10.1689 2.81017 10.1689 2.94905V5.3304H10.6445V4.29838C10.6445 4.07839 10.8184 3.89794 11.0303 3.89794H11.6143C11.8262 3.89794 12 4.07839 12 4.29838V7.79588C12 8.01587 11.8262 8.19632 11.6143 8.19632H11.0303C10.8184 8.19632 10.6445 8.01587 10.6445 7.79588V6.76387H10.1689V6.85713C10.1689 7.13389 10.1768 7.30117 10.0068 7.53028C9.97461 7.57387 9.93848 7.61543 9.89844 7.65396L8.15723 9.424C8.07031 9.52436 7.93848 9.5791 7.76465 9.58924H4.7959C4.57422 9.5791 4.39355 9.50003 4.25586 9.34695ZM6.22168 6.26307L4.9873 6.14243L6.01074 3.81481H7.41016L6.61621 5.14995L8.04395 5.31418L5.42285 8.58054L6.22168 6.26307ZM5.07617 0H8.44531C8.65723 0 8.83105 0.180451 8.83105 0.400439V1.00667C8.83105 1.22666 8.65723 1.40711 8.44531 1.40711H7.45117V1.91704H6.07031V1.40711H5.07617C4.86426 1.40711 4.69043 1.22666 4.69043 1.00667V0.400439C4.69043 0.180451 4.86426 0 5.07617 0Z" fill="#ADADAD"/>
</svg>
