<svg width="9" height="10" viewBox="0 0 9 10" fill="none" xmlns="http://www.w3.org/2000/svg">
<path d="M4.51183 2.48396C4.41215 2.48396 4.31655 2.52621 4.24607 2.60141C4.17558 2.6766 4.13598 2.77859 4.13598 2.88494V4.8898C4.136 4.99614 4.17562 5.09811 4.24611 5.17329L5.37366 6.37621C5.44455 6.44925 5.53949 6.48967 5.63803 6.48876C5.73658 6.48784 5.83085 6.44567 5.90054 6.37133C5.97022 6.29698 6.00975 6.19641 6.01061 6.09128C6.01146 5.98615 5.97358 5.88486 5.90511 5.80924L4.88768 4.7238V2.88494C4.88768 2.77859 4.84809 2.6766 4.7776 2.60141C4.70711 2.52621 4.61152 2.48396 4.51183 2.48396ZM8.95139 4.14079C8.82237 3.26901 8.47108 2.45188 7.93596 1.7788C7.40084 1.10572 6.7025 0.602628 5.91735 0.324563C5.13219 0.0464976 4.29048 0.00417271 3.48429 0.202219C2.6781 0.400265 1.93851 0.831053 1.34641 1.44745V0.479098C1.34641 0.372754 1.30682 0.270764 1.23633 0.195567C1.16584 0.12037 1.07024 0.078125 0.970562 0.078125C0.87088 0.078125 0.775281 0.12037 0.704795 0.195567C0.63431 0.270764 0.594711 0.372754 0.594711 0.479098V2.08299C0.594711 2.29568 0.673908 2.49966 0.81488 2.65005C0.955851 2.80045 1.14705 2.88494 1.34641 2.88494H2.84982C2.9495 2.88494 3.0451 2.84269 3.11559 2.7675C3.18607 2.6923 3.22567 2.59031 3.22567 2.48396C3.22567 2.37762 3.18607 2.27563 3.11559 2.20043C3.0451 2.12524 2.9495 2.08299 2.84982 2.08299H1.81585C2.41646 1.43246 3.20737 1.02037 4.05755 0.914993C4.90772 0.809613 5.76613 1.01727 6.49054 1.50356C7.21496 1.98985 7.7619 2.72558 8.04076 3.58886C8.31962 4.45214 8.31364 5.39115 8.02384 6.25031C7.73403 7.10947 7.17777 7.83722 6.44724 8.31298C5.7167 8.78873 4.85573 8.98395 4.00698 8.86627C3.15822 8.74859 2.37263 8.32509 1.78035 7.66593C1.18806 7.00677 0.82465 6.15151 0.750313 5.24186C0.740567 5.14412 0.696909 5.0538 0.627917 4.98866C0.558926 4.92351 0.469591 4.88825 0.377469 4.8898C0.324904 4.88995 0.272945 4.90178 0.224903 4.92454C0.17686 4.94729 0.133787 4.98048 0.0984281 5.02197C0.0630692 5.06347 0.0361998 5.11236 0.0195319 5.16555C0.00286392 5.21873 -0.00323704 5.27504 0.00161769 5.33088C0.0610531 5.9698 0.239748 6.58957 0.527176 7.15368C0.814603 7.71778 1.20495 8.21481 1.67522 8.61549C2.14548 9.01616 2.68616 9.31237 3.2654 9.48667C3.84463 9.66097 4.4507 9.70984 5.04791 9.63038C5.64512 9.55093 6.22139 9.34477 6.74275 9.02404C7.26412 8.70331 7.72005 8.27451 8.08368 7.7629C8.44731 7.25128 8.71128 6.6672 8.86004 6.04506C9.00881 5.42292 9.03935 4.77531 8.94989 4.14039L8.95139 4.14079Z" fill="#ADADAD"/>
</svg>
