<svg width="8" height="10" viewBox="0 0 8 10" fill="none" xmlns="http://www.w3.org/2000/svg">
<path d="M6.71755 5.85959C6.70083 7.87133 5.22651 9.43578 3.47777 9.41203C1.72903 9.38829 0.281032 7.78416 0.297747 5.77242C0.301784 5.28663 0.456496 4.69644 0.712921 4.07332C0.967952 3.45358 1.31677 2.81761 1.69305 2.24509C2.06971 1.67198 2.4693 1.16944 2.82273 0.814174C2.99984 0.636147 3.16005 0.500489 3.2954 0.41143C3.43891 0.317002 3.52229 0.296545 3.5535 0.296969C3.58472 0.297393 3.66774 0.320109 3.80964 0.418412C3.94349 0.511126 4.10141 0.651104 4.27552 0.833899C4.62297 1.19868 5.01411 1.71195 5.38117 2.29516C5.74785 2.87777 6.08602 3.52307 6.3307 4.14959C6.57671 4.77954 6.72158 5.3738 6.71755 5.85959Z" stroke="#ADADAD" stroke-width="0.5"/>
</svg>
